<svg width="93" height="35" viewBox="0 0 93 35" fill="none" xmlns="http://www.w3.org/2000/svg">
<path d="M90.9167 0.452026H90.8884H6.56193H6.53358C5.99503 0.452026 5.52734 0.712722 5.22971 1.10377C4.49274 1.87137 0.92127 5.50662 0.92127 5.52111C0.609475 5.82525 0.425232 6.25974 0.425232 6.73769V32.6045C0.425232 33.5459 1.17637 34.3135 2.09759 34.3135H86.4524C86.92 34.3135 87.3452 34.1107 87.6428 33.8066C87.657 33.7921 92.093 29.2589 92.093 29.2589C92.4048 28.9547 92.5891 28.5202 92.5891 28.0423V2.16103C92.5891 1.21963 91.8379 0.452026 90.9167 0.452026Z" fill="white"/>
<path d="M90.9166 0.0325317H90.8883H6.56187H6.53353C5.89576 0.0325317 5.31469 0.336676 4.93203 0.814618C4.18089 1.58222 0.651935 5.20299 0.62359 5.21748C0.22676 5.623 0 6.15888 0 6.7382V32.605C0 33.7781 0.935386 34.734 2.08336 34.734H86.4381C87.005 34.734 87.5294 34.5023 87.9262 34.0967L92.3764 29.5491C92.7732 29.1435 93 28.6077 93 28.0283V2.16155C93 0.988415 92.0646 0.0325317 90.9166 0.0325317ZM90.8883 0.887034C91.5827 0.887034 92.1355 1.46636 92.1355 2.16155V28.0283C92.1355 28.738 91.5686 29.3028 90.8883 29.3028H6.53353C5.83907 29.3028 5.28635 28.7235 5.28635 28.0283V2.16155C5.28635 1.88637 5.37138 1.62567 5.52728 1.40842C5.61231 1.32153 5.669 1.26359 5.669 1.26359C5.90994 1.01738 6.22173 0.872551 6.56187 0.872551H90.8883V0.887034ZM87.331 33.4885C87.0901 33.7347 86.7783 33.8795 86.4381 33.8795H2.08336C1.38891 33.8795 0.836178 33.3002 0.836178 32.605V6.7382C0.836178 6.39061 0.963731 6.07198 1.21884 5.82577C1.24718 5.7968 3.1463 3.85607 4.46434 2.50914V28.0283C4.46434 29.2015 5.39973 30.1573 6.5477 30.1573H90.619L87.331 33.4885Z" fill="black"/>
<path d="M15.2072 9.40259H25.2271V12.5309H18.892V14.0806H24.9578V16.789H18.892V20.7863H15.2213V9.40259H15.2072Z" fill="black"/>
<path d="M35.8423 20.7863L34.34 17.8462H31.548V20.7863H27.8773V9.40259H34.2549C37.3446 9.40259 39.0878 10.764 39.0878 13.7475C39.0878 15.2827 38.4075 16.369 37.4721 17.0352L39.4563 20.7718H35.8423V20.7863ZM31.548 15.0365H33.9998C34.9352 15.0365 35.4029 14.5731 35.4029 13.7765C35.4029 12.9799 34.9211 12.5165 33.9998 12.5165H31.548V15.0365Z" fill="black"/>
<path d="M41.3412 15.095C41.3412 11.4452 43.8214 9.02655 47.648 9.02655C51.4745 9.02655 53.9547 11.4452 53.9547 15.095C53.9547 18.7447 51.4745 21.1634 47.648 21.1634C43.8214 21.1634 41.3412 18.7447 41.3412 15.095ZM50.3124 15.095C50.3124 13.2991 49.1077 12.2563 47.648 12.2563C46.1882 12.2563 44.9835 13.2846 44.9835 15.095C44.9835 16.8909 46.1882 17.9336 47.648 17.9336C49.1077 17.9336 50.3124 16.8909 50.3124 15.095Z" fill="black"/>
<path d="M56.4776 9.40259H60.701L64.4 15.5579H64.726V9.40259H68.3116V20.7863H64.1874L60.3892 14.631H60.0632V20.7863H56.4776V9.40259Z" fill="black"/>
<path d="M82.229 12.5309H78.2182V20.7863H74.5475V12.5309H70.5367V9.40259H82.229V12.5309Z" fill="black"/>
</svg>
